<mxfile host="app.diagrams.net" agent="Mozilla/5.0 (Windows NT 10.0; Win64; x64) AppleWebKit/537.36 (KHTML, like Gecko) Chrome/134.0.0.0 Safari/537.36" version="26.2.3">
  <diagram name="Página-1" id="OT5j33YwjarsaKJpWsH-">
    <mxGraphModel dx="2039" dy="1047" grid="1" gridSize="10" guides="1" tooltips="1" connect="1" arrows="1" fold="1" page="1" pageScale="1" pageWidth="827" pageHeight="1169" math="0" shadow="0">
      <root>
        <mxCell id="0" />
        <mxCell id="1" parent="0" />
        <mxCell id="AF3W-8He8WswEdSo1Ryx-1" value="Cliente" style="shape=umlActor;verticalLabelPosition=bottom;verticalAlign=top;html=1;outlineConnect=0;rounded=0;fillColor=#e1d5e7;strokeColor=#9673a6;" vertex="1" parent="1">
          <mxGeometry x="40" y="360" width="40" height="80" as="geometry" />
        </mxCell>
        <mxCell id="AF3W-8He8WswEdSo1Ryx-30" value="" style="edgeStyle=orthogonalEdgeStyle;orthogonalLoop=1;jettySize=auto;html=1;" edge="1" parent="1" source="AF3W-8He8WswEdSo1Ryx-2" target="AF3W-8He8WswEdSo1Ryx-1">
          <mxGeometry relative="1" as="geometry" />
        </mxCell>
        <mxCell id="AF3W-8He8WswEdSo1Ryx-2" value="." style="rounded=0;whiteSpace=wrap;html=1;fillColor=#e1d5e7;strokeColor=#9673a6;" vertex="1" parent="1">
          <mxGeometry x="114" y="120" width="486" height="560" as="geometry" />
        </mxCell>
        <mxCell id="AF3W-8He8WswEdSo1Ryx-3" value="E-commerce Comida rápida" style="text;html=1;align=center;verticalAlign=middle;whiteSpace=wrap;rounded=0;fontStyle=1;fontSize=20;" vertex="1" parent="1">
          <mxGeometry x="204.25" y="80" width="305.5" height="30" as="geometry" />
        </mxCell>
        <mxCell id="AF3W-8He8WswEdSo1Ryx-5" value="Actualizar_ubicación" style="ellipse;whiteSpace=wrap;html=1;rounded=0;" vertex="1" parent="1">
          <mxGeometry x="180" y="130" width="120" height="50" as="geometry" />
        </mxCell>
        <mxCell id="AF3W-8He8WswEdSo1Ryx-6" value="Registro" style="ellipse;whiteSpace=wrap;html=1;rounded=0;" vertex="1" parent="1">
          <mxGeometry x="390" y="160" width="120" height="50" as="geometry" />
        </mxCell>
        <mxCell id="AF3W-8He8WswEdSo1Ryx-7" value="Búsqueda_producto" style="ellipse;whiteSpace=wrap;html=1;rounded=0;" vertex="1" parent="1">
          <mxGeometry x="180" y="195" width="120" height="50" as="geometry" />
        </mxCell>
        <mxCell id="AF3W-8He8WswEdSo1Ryx-8" value="Realizar_pedido" style="ellipse;whiteSpace=wrap;html=1;rounded=0;" vertex="1" parent="1">
          <mxGeometry x="180" y="260" width="120" height="50" as="geometry" />
        </mxCell>
        <mxCell id="AF3W-8He8WswEdSo1Ryx-9" value="Realizar_pago" style="ellipse;whiteSpace=wrap;html=1;rounded=0;" vertex="1" parent="1">
          <mxGeometry x="180" y="330" width="120" height="50" as="geometry" />
        </mxCell>
        <mxCell id="AF3W-8He8WswEdSo1Ryx-10" value="Validar_Compra" style="ellipse;whiteSpace=wrap;html=1;rounded=0;" vertex="1" parent="1">
          <mxGeometry x="190" y="430" width="120" height="50" as="geometry" />
        </mxCell>
        <mxCell id="AF3W-8He8WswEdSo1Ryx-11" value="&amp;lt;&amp;lt;include&amp;gt;&amp;gt;" style="endArrow=open;endSize=12;dashed=1;html=1;rounded=0;exitX=1;exitY=0.5;exitDx=0;exitDy=0;entryX=0;entryY=0.5;entryDx=0;entryDy=0;" edge="1" parent="1" source="AF3W-8He8WswEdSo1Ryx-5" target="AF3W-8He8WswEdSo1Ryx-6">
          <mxGeometry width="160" relative="1" as="geometry">
            <mxPoint x="290" y="340" as="sourcePoint" />
            <mxPoint x="450" y="340" as="targetPoint" />
          </mxGeometry>
        </mxCell>
        <mxCell id="AF3W-8He8WswEdSo1Ryx-12" value="Tarjeta" style="ellipse;whiteSpace=wrap;html=1;rounded=0;" vertex="1" parent="1">
          <mxGeometry x="390" y="310" width="120" height="50" as="geometry" />
        </mxCell>
        <mxCell id="AF3W-8He8WswEdSo1Ryx-13" value="Efectivo" style="ellipse;whiteSpace=wrap;html=1;rounded=0;" vertex="1" parent="1">
          <mxGeometry x="390" y="370" width="120" height="50" as="geometry" />
        </mxCell>
        <mxCell id="AF3W-8He8WswEdSo1Ryx-14" value="&amp;lt;&amp;lt;extend&amp;gt;&amp;gt;" style="endArrow=open;endSize=12;dashed=1;html=1;rounded=0;exitX=1;exitY=0.5;exitDx=0;exitDy=0;entryX=0;entryY=0.5;entryDx=0;entryDy=0;" edge="1" parent="1" source="AF3W-8He8WswEdSo1Ryx-9" target="AF3W-8He8WswEdSo1Ryx-12">
          <mxGeometry width="160" relative="1" as="geometry">
            <mxPoint x="310" y="196" as="sourcePoint" />
            <mxPoint x="400" y="226" as="targetPoint" />
          </mxGeometry>
        </mxCell>
        <mxCell id="AF3W-8He8WswEdSo1Ryx-15" value="&amp;lt;&amp;lt;extend&amp;gt;&amp;gt;" style="endArrow=open;endSize=12;dashed=1;html=1;rounded=0;exitX=1;exitY=0.5;exitDx=0;exitDy=0;entryX=0;entryY=0.5;entryDx=0;entryDy=0;" edge="1" parent="1" source="AF3W-8He8WswEdSo1Ryx-9" target="AF3W-8He8WswEdSo1Ryx-13">
          <mxGeometry width="160" relative="1" as="geometry">
            <mxPoint x="310" y="365" as="sourcePoint" />
            <mxPoint x="400" y="315" as="targetPoint" />
          </mxGeometry>
        </mxCell>
        <mxCell id="AF3W-8He8WswEdSo1Ryx-16" value="Datos_Compra" style="ellipse;whiteSpace=wrap;html=1;rounded=0;" vertex="1" parent="1">
          <mxGeometry x="190" y="495" width="120" height="50" as="geometry" />
        </mxCell>
        <mxCell id="AF3W-8He8WswEdSo1Ryx-17" value="Seguimiento_Compra" style="ellipse;whiteSpace=wrap;html=1;rounded=0;" vertex="1" parent="1">
          <mxGeometry x="190" y="559.5" width="120" height="50" as="geometry" />
        </mxCell>
        <mxCell id="AF3W-8He8WswEdSo1Ryx-18" value="Reseña" style="ellipse;whiteSpace=wrap;html=1;rounded=0;" vertex="1" parent="1">
          <mxGeometry x="190" y="620" width="120" height="50" as="geometry" />
        </mxCell>
        <mxCell id="AF3W-8He8WswEdSo1Ryx-19" value="Sistema" style="shape=umlActor;verticalLabelPosition=bottom;verticalAlign=top;html=1;outlineConnect=0;rounded=0;fillColor=#e1d5e7;strokeColor=#9673a6;" vertex="1" parent="1">
          <mxGeometry x="640" y="360" width="40" height="80" as="geometry" />
        </mxCell>
        <mxCell id="AF3W-8He8WswEdSo1Ryx-20" value="" style="endArrow=classic;html=1;rounded=0;entryX=0;entryY=0.5;entryDx=0;entryDy=0;" edge="1" parent="1" source="AF3W-8He8WswEdSo1Ryx-1" target="AF3W-8He8WswEdSo1Ryx-5">
          <mxGeometry width="50" height="50" relative="1" as="geometry">
            <mxPoint x="350" y="460" as="sourcePoint" />
            <mxPoint x="400" y="410" as="targetPoint" />
          </mxGeometry>
        </mxCell>
        <mxCell id="AF3W-8He8WswEdSo1Ryx-21" value="" style="endArrow=classic;html=1;rounded=0;entryX=0;entryY=0.5;entryDx=0;entryDy=0;" edge="1" parent="1" source="AF3W-8He8WswEdSo1Ryx-1" target="AF3W-8He8WswEdSo1Ryx-7">
          <mxGeometry width="50" height="50" relative="1" as="geometry">
            <mxPoint x="90" y="370" as="sourcePoint" />
            <mxPoint x="190" y="165" as="targetPoint" />
          </mxGeometry>
        </mxCell>
        <mxCell id="AF3W-8He8WswEdSo1Ryx-22" value="" style="endArrow=classic;html=1;rounded=0;entryX=0;entryY=0.5;entryDx=0;entryDy=0;" edge="1" parent="1" source="AF3W-8He8WswEdSo1Ryx-1" target="AF3W-8He8WswEdSo1Ryx-8">
          <mxGeometry width="50" height="50" relative="1" as="geometry">
            <mxPoint x="90" y="380" as="sourcePoint" />
            <mxPoint x="190" y="230" as="targetPoint" />
          </mxGeometry>
        </mxCell>
        <mxCell id="AF3W-8He8WswEdSo1Ryx-23" value="" style="endArrow=classic;html=1;rounded=0;entryX=0;entryY=0.5;entryDx=0;entryDy=0;" edge="1" parent="1" source="AF3W-8He8WswEdSo1Ryx-1" target="AF3W-8He8WswEdSo1Ryx-9">
          <mxGeometry width="50" height="50" relative="1" as="geometry">
            <mxPoint x="90" y="391" as="sourcePoint" />
            <mxPoint x="190" y="295" as="targetPoint" />
          </mxGeometry>
        </mxCell>
        <mxCell id="AF3W-8He8WswEdSo1Ryx-24" value="" style="endArrow=classic;html=1;rounded=0;entryX=0;entryY=0.5;entryDx=0;entryDy=0;" edge="1" parent="1" source="AF3W-8He8WswEdSo1Ryx-1" target="AF3W-8He8WswEdSo1Ryx-16">
          <mxGeometry width="50" height="50" relative="1" as="geometry">
            <mxPoint x="90" y="403" as="sourcePoint" />
            <mxPoint x="190" y="365" as="targetPoint" />
          </mxGeometry>
        </mxCell>
        <mxCell id="AF3W-8He8WswEdSo1Ryx-25" value="" style="endArrow=classic;html=1;rounded=0;entryX=0;entryY=0.5;entryDx=0;entryDy=0;" edge="1" parent="1" source="AF3W-8He8WswEdSo1Ryx-1" target="AF3W-8He8WswEdSo1Ryx-17">
          <mxGeometry width="50" height="50" relative="1" as="geometry">
            <mxPoint x="90" y="428" as="sourcePoint" />
            <mxPoint x="200" y="530" as="targetPoint" />
          </mxGeometry>
        </mxCell>
        <mxCell id="AF3W-8He8WswEdSo1Ryx-26" value="" style="endArrow=classic;html=1;rounded=0;entryX=0;entryY=0.5;entryDx=0;entryDy=0;endSize=4;" edge="1" parent="1" target="AF3W-8He8WswEdSo1Ryx-18">
          <mxGeometry width="50" height="50" relative="1" as="geometry">
            <mxPoint x="80" y="450" as="sourcePoint" />
            <mxPoint x="200" y="595" as="targetPoint" />
          </mxGeometry>
        </mxCell>
        <mxCell id="AF3W-8He8WswEdSo1Ryx-27" value="" style="endArrow=classic;html=1;rounded=0;entryX=1;entryY=1;entryDx=0;entryDy=0;" edge="1" parent="1" source="AF3W-8He8WswEdSo1Ryx-19" target="AF3W-8He8WswEdSo1Ryx-5">
          <mxGeometry width="50" height="50" relative="1" as="geometry">
            <mxPoint x="640" y="360" as="sourcePoint" />
            <mxPoint x="490" y="274.17" as="targetPoint" />
          </mxGeometry>
        </mxCell>
        <mxCell id="AF3W-8He8WswEdSo1Ryx-28" value="" style="endArrow=classic;html=1;rounded=0;entryX=1;entryY=0.5;entryDx=0;entryDy=0;" edge="1" parent="1" source="AF3W-8He8WswEdSo1Ryx-19" target="AF3W-8He8WswEdSo1Ryx-10">
          <mxGeometry width="50" height="50" relative="1" as="geometry">
            <mxPoint x="650" y="370" as="sourcePoint" />
            <mxPoint x="292" y="183" as="targetPoint" />
          </mxGeometry>
        </mxCell>
        <mxCell id="AF3W-8He8WswEdSo1Ryx-29" value="" style="endArrow=classic;html=1;rounded=0;entryX=1;entryY=0.5;entryDx=0;entryDy=0;" edge="1" parent="1" source="AF3W-8He8WswEdSo1Ryx-19" target="AF3W-8He8WswEdSo1Ryx-16">
          <mxGeometry width="50" height="50" relative="1" as="geometry">
            <mxPoint x="650" y="413" as="sourcePoint" />
            <mxPoint x="320" y="465" as="targetPoint" />
          </mxGeometry>
        </mxCell>
      </root>
    </mxGraphModel>
  </diagram>
</mxfile>
